<svg version="1.1" id="Layer_1" xmlns="http://www.w3.org/2000/svg" xmlns:xlink="http://www.w3.org/1999/xlink" x="0px" y="0px"
	 width="100%" viewBox="0 0 5832 3621" enable-background="new 0 0 5832 3621" xml:space="preserve">
<path fill="#FFFFFF" opacity="1.000000" stroke="none" 
	d="
M3300.000000,3628.000000 
	C2200.000000,3628.000000 1102.000000,3628.000000 4.000000,3628.000000 
	C4.000000,2420.000000 4.000000,1212.000000 4.000000,4.000000 
	C1948.000000,4.000000 3892.000000,4.000000 5836.000000,4.000000 
	C5836.000000,1212.000000 5836.000000,2420.000000 5836.000000,3628.000000 
	C4991.333496,3628.000000 4146.666504,3628.000000 3300.000000,3628.000000 
M3897.845703,1300.201050 
	C3895.862061,1300.195435 3893.878662,1300.189819 3889.468750,1298.887939 
	C3771.617676,1231.054688 3651.070801,1168.362549 3528.159424,1110.242554 
	C3446.872803,1071.805420 3365.029297,1034.683594 3280.524414,1003.589966 
	C3122.406494,945.410767 2964.679443,886.170532 2806.586914,827.922241 
	C2739.735596,803.291199 2672.506592,779.660645 2605.162842,756.405151 
	C2583.191162,748.817810 2560.472168,743.153381 2537.779053,738.000977 
	C2526.932129,735.538208 2515.331055,735.623108 2504.101562,735.875732 
	C2495.967041,736.058777 2491.963867,740.817688 2492.011719,748.893494 
	C2492.046387,754.755859 2492.667969,761.028137 2494.849121,766.374512 
	C2498.852539,776.186646 2503.178467,786.163696 2509.203613,794.791382 
	C2521.010742,811.698669 2533.468994,828.238159 2546.741699,844.018188 
	C2580.301758,883.918518 2618.743164,918.895264 2658.580322,952.364502 
	C2735.497070,1016.986389 2819.580078,1070.741699 2909.299805,1115.591431 
	C2990.555176,1156.209717 3075.664551,1187.126221 3162.999023,1211.780151 
	C3240.528320,1233.666382 3318.446045,1254.175903 3395.997314,1275.985229 
	C3482.001221,1300.171509 3566.195801,1329.572144 3648.079590,1365.482178 
	C3706.098633,1390.926147 3761.627686,1421.349487 3818.123535,1449.836670 
	C3828.199707,1454.917603 3837.766846,1461.147095 3847.102783,1467.528320 
	C3865.500488,1480.103638 3880.633545,1495.899780 3891.647217,1515.407959 
	C3894.878906,1521.132202 3898.731201,1526.701782 3898.344238,1534.337524 
	C3895.873535,1535.040405 3893.420654,1535.894409 3890.900391,1536.432129 
	C3838.645752,1547.579956 3785.659180,1553.031128 3732.396484,1555.325562 
	C3656.315430,1558.602783 3580.577148,1553.060425 3505.212891,1543.034424 
	C3431.249756,1533.194824 3358.111816,1518.677124 3285.413574,1501.861450 
	C3190.692139,1479.951416 3096.940430,1454.295776 3002.965332,1429.490723 
	C2878.691650,1396.688477 2754.233154,1364.734009 2626.831543,1345.962280 
	C2583.316406,1339.550659 2539.632080,1334.464722 2495.742920,1332.408203 
	C2411.688477,1328.469849 2327.909668,1332.874756 2244.618652,1344.900757 
	C2173.408447,1355.182739 2102.905762,1369.243530 2033.014160,1386.343750 
	C1908.003052,1416.929932 1785.640503,1455.976440 1665.428345,1501.810303 
	C1580.119019,1534.336548 1496.132690,1569.874023 1415.134155,1612.238892 
	C1377.868286,1631.730103 1339.111694,1647.706665 1298.190063,1658.037354 
	C1255.226929,1668.883423 1211.756836,1674.053711 1167.553345,1668.638428 
	C1143.122681,1665.645264 1118.768311,1661.869507 1094.505005,1657.713989 
	C1066.795166,1652.968140 1041.632690,1658.107544 1018.649780,1674.426392 
	C999.822693,1687.794556 985.104431,1704.592529 974.078247,1724.874878 
	C954.775269,1760.382202 950.672424,1798.719727 956.660950,1837.507080 
	C965.788940,1896.628418 998.110596,1938.930664 1054.930054,1960.824097 
	C1075.028687,1968.568359 1095.896362,1972.209351 1117.461914,1972.236938 
	C1127.969116,1972.250366 1138.584473,1971.235229 1150.308838,1973.446411 
	C1153.537476,1993.670288 1154.827637,2013.563843 1151.827515,2033.261719 
	C1147.984009,2058.498779 1140.137451,2082.772705 1123.665161,2102.821533 
	C1108.886108,2120.809326 1093.456177,2138.416260 1076.901978,2154.761719 
	C1034.677002,2196.455078 989.730469,2235.187500 943.745728,2272.654297 
	C867.791138,2334.539551 791.419861,2395.913574 715.377747,2457.691895 
	C706.106140,2465.224609 697.626465,2473.764404 689.065002,2482.129395 
	C681.920044,2489.110352 675.341309,2496.667969 668.255920,2503.713135 
	C631.862915,2539.897949 595.083313,2575.699951 559.034363,2612.223389 
	C529.057678,2642.594482 500.484314,2674.321045 476.280579,2709.590820 
	C467.651428,2722.165283 460.444824,2735.783447 453.376465,2749.336182 
	C449.051208,2757.629150 446.938049,2766.847412 447.843781,2776.440186 
	C448.293854,2781.207031 449.213104,2785.718018 455.172516,2788.017090 
	C457.725769,2787.294189 460.960876,2786.575195 464.059357,2785.472412 
	C568.508606,2748.300049 669.719116,2704.012451 764.069824,2645.393066 
	C819.522156,2610.940918 873.930359,2574.802002 928.653564,2539.184326 
	C1003.576538,2490.419678 1080.921387,2446.015625 1161.690552,2407.579590 
	C1233.306274,2373.499512 1306.508057,2343.167480 1380.209595,2314.004883 
	C1568.745605,2239.404297 1761.324341,2177.717529 1959.336182,2133.506592 
	C2025.627930,2118.705566 2092.218262,2105.402832 2159.432373,2095.485352 
	C2199.610107,2089.556885 2239.826660,2083.820801 2280.129150,2078.832031 
	C2314.478760,2074.580322 2348.941895,2071.144287 2383.418457,2068.054199 
	C2409.941406,2065.676758 2436.543213,2063.975830 2463.145020,2062.722168 
	C2511.015625,2060.465576 2558.897949,2057.955078 2606.803223,2057.098877 
	C2644.734619,2056.421143 2682.716309,2057.738281 2720.659424,2058.765625 
	C2755.932129,2059.720459 2791.194336,2061.242188 2826.442627,2062.907715 
	C2888.331299,2065.832031 2950.030518,2071.256836 3011.449951,2079.308594 
	C3072.839111,2087.356201 3134.288086,2095.237305 3195.372314,2105.255127 
	C3298.560059,2122.177002 3400.742432,2144.311279 3502.175537,2169.680420 
	C3598.423096,2193.752686 3693.879150,2220.730713 3788.547119,2250.461670 
	C3927.081543,2293.968750 4063.916016,2342.322510 4199.668457,2393.823975 
	C4265.117188,2418.654053 4329.742676,2445.246338 4391.752441,2477.879883 
	C4434.783691,2500.525146 4477.785156,2523.226562 4520.865723,2545.778320 
	C4576.934570,2575.129639 4633.043457,2604.407227 4691.436523,2629.000732 
	C4722.766113,2642.196045 4754.450195,2654.358887 4787.817383,2661.454834 
	C4806.095703,2665.342285 4824.543945,2667.619141 4843.209473,2664.499512 
	C4849.094727,2663.515869 4854.967285,2662.200439 4860.679199,2660.483643 
	C4894.535156,2650.307129 4910.826660,2619.571045 4905.903320,2585.687012 
	C4903.080566,2566.259766 4895.798340,2548.460449 4885.297363,2531.982178 
	C4865.678223,2501.195557 4841.155762,2474.977051 4809.816406,2456.098389 
	C4787.599121,2442.714844 4764.674805,2430.328369 4741.316895,2419.048096 
	C4666.868164,2383.094482 4589.623535,2353.765137 4512.518066,2324.166016 
	C4413.038574,2285.977783 4312.816406,2249.702148 4214.574707,2208.335205 
	C4171.578613,2190.230957 4128.798828,2171.591064 4089.019043,2146.978760 
	C4077.757568,2140.010986 4067.091553,2131.796875 4057.248535,2122.936523 
	C4052.057129,2118.263428 4047.635010,2111.447754 4045.616455,2104.768066 
	C4038.018066,2079.627441 4050.230713,2048.710449 4072.986816,2035.327148 
	C4081.479736,2030.332153 4091.041748,2026.771973 4100.523926,2023.907959 
	C4143.680664,2010.873047 4188.090820,2006.081543 4232.862793,2008.695923 
	C4280.023438,2011.449463 4327.174316,2015.605835 4374.073730,2021.267700 
	C4421.834473,2027.033447 4469.602051,2029.600586 4517.626465,2028.830444 
	C4551.820801,2028.281982 4585.096191,2022.458984 4617.886719,2012.715454 
	C4664.826172,1998.767578 4704.187012,1971.529663 4742.855957,1942.990234 
	C4752.817383,1935.638184 4758.866211,1925.434814 4761.341797,1913.062134 
	C4765.350586,1893.022339 4765.145996,1873.534180 4756.923340,1854.328003 
	C4745.571289,1827.810059 4730.096680,1803.729736 4713.871094,1780.116455 
	C4672.669922,1720.155518 4626.605957,1663.995117 4578.945801,1609.124634 
	C4536.111816,1559.810913 4492.134766,1511.571045 4444.588379,1466.677612 
	C4424.917480,1448.104248 4402.507324,1434.149780 4377.554199,1424.005127 
	C4350.908691,1413.172363 4323.058105,1406.541260 4295.128418,1400.172852 
	C4265.272949,1393.365479 4235.368164,1386.827271 4206.483398,1376.323975 
	C4169.942871,1363.036499 4138.889160,1342.118042 4114.453125,1311.700562 
	C4107.776367,1303.389282 4100.884277,1295.221558 4094.673584,1286.569824 
	C4072.524170,1255.716187 4050.607910,1224.694946 4028.638184,1193.712524 
	C4008.950684,1165.948853 3988.471436,1138.798218 3963.422852,1115.569824 
	C3937.534912,1091.563110 3911.820557,1067.304810 3884.915527,1044.470459 
	C3763.926270,941.788269 3632.637939,854.770630 3489.357666,786.134277 
	C3412.867676,749.492676 3334.016602,719.248657 3251.898682,697.824890 
	C3202.832031,685.023926 3153.046631,675.961792 3102.440918,672.319214 
	C3037.011719,667.609619 2972.069824,673.080261 2907.208496,681.942383 
	C2873.600830,686.534241 2839.668945,689.132507 2805.798340,691.298279 
	C2780.558350,692.912170 2755.171875,692.096008 2729.869873,692.941040 
	C2717.927979,693.339905 2706.006104,694.893616 2694.127930,696.354248 
	C2690.237549,696.832581 2686.384521,698.366272 2682.738770,699.938354 
	C2671.468262,704.798950 2668.458252,713.524963 2674.855957,724.149475 
	C2677.910400,729.221802 2681.889160,733.885437 2686.108154,738.069580 
	C2690.820068,742.742188 2696.319580,746.614014 2701.403564,750.919678 
	C2707.740479,756.286194 2715.040283,758.500793 2723.290771,759.517822 
	C2764.255371,764.567505 2805.282471,769.304199 2846.065186,775.593262 
	C2953.562988,792.170288 3058.791992,818.333618 3162.010010,852.583496 
	C3284.380859,893.188782 3401.811035,944.962036 3514.122559,1008.345520 
	C3629.426025,1073.417847 3737.110352,1149.290771 3837.148193,1235.983276 
	C3857.280518,1253.430054 3876.693848,1271.711304 3896.270752,1289.789551 
	C3898.863770,1292.184448 3903.257080,1294.400879 3897.845703,1300.201050 
M4402.977539,2646.732666 
	C4417.892578,2654.143799 4432.876953,2661.418457 4447.708984,2668.991943 
	C4494.027344,2692.643066 4539.179688,2718.025635 4580.895020,2749.531494 
	C4606.352051,2768.758301 4633.743164,2785.542480 4661.006348,2802.211670 
	C4675.120117,2810.841309 4690.590332,2817.463379 4705.956055,2823.749268 
	C4713.793457,2826.955322 4722.698242,2828.430176 4731.219238,2828.897949 
	C4747.097168,2829.770508 4755.096191,2822.935059 4756.713867,2807.326172 
	C4757.524902,2799.497070 4756.711914,2791.389404 4755.773438,2783.510010 
	C4752.890137,2759.304443 4742.595703,2739.052979 4722.800781,2724.150879 
	C4713.224609,2716.941895 4704.238281,2708.765625 4694.025879,2702.621826 
	C4667.216309,2686.493896 4640.396484,2670.245850 4612.649414,2655.839111 
	C4546.393066,2621.437012 4477.663574,2592.383301 4408.486816,2564.441650 
	C4304.723633,2522.530273 4199.690430,2483.977783 4093.587891,2448.466309 
	C4028.577148,2426.707520 3962.862549,2407.050293 3897.429199,2386.561035 
	C3893.885254,2385.451416 3890.018066,2385.375244 3885.393311,2384.681641 
	C3884.393799,2388.953369 3883.311768,2392.070312 3882.981934,2395.264893 
	C3881.892090,2405.815186 3880.397705,2416.391846 3880.376221,2426.961426 
	C3880.360596,2434.719727 3885.509277,2438.703857 3893.376221,2439.223145 
	C3895.356689,2439.354004 3897.375000,2439.165527 3899.358887,2438.960449 
	C3912.971191,2437.553467 3925.518555,2440.649902 3938.169922,2445.901123 
	C3983.070068,2464.536133 4028.352539,2482.249268 4073.345703,2500.664062 
	C4183.695801,2545.828857 4293.488770,2592.269043 4402.977539,2646.732666 
z"/>
<path fill="#149ED4" opacity="1.000000" stroke="none" 
	d="
M3900.724365,1299.441895 
	C3903.257080,1294.400879 3898.863770,1292.184448 3896.270752,1289.789551 
	C3876.693848,1271.711304 3857.280518,1253.430054 3837.148193,1235.983276 
	C3737.110352,1149.290771 3629.426025,1073.417847 3514.122559,1008.345520 
	C3401.811035,944.962036 3284.380859,893.188782 3162.010010,852.583496 
	C3058.791992,818.333618 2953.562988,792.170288 2846.065186,775.593262 
	C2805.282471,769.304199 2764.255371,764.567505 2723.290771,759.517822 
	C2715.040283,758.500793 2707.740479,756.286194 2701.403564,750.919678 
	C2696.319580,746.614014 2690.820068,742.742188 2686.108154,738.069580 
	C2681.889160,733.885437 2677.910400,729.221802 2674.855957,724.149475 
	C2668.458252,713.524963 2671.468262,704.798950 2682.738770,699.938354 
	C2686.384521,698.366272 2690.237549,696.832581 2694.127930,696.354248 
	C2706.006104,694.893616 2717.927979,693.339905 2729.869873,692.941040 
	C2755.171875,692.096008 2780.558350,692.912170 2805.798340,691.298279 
	C2839.668945,689.132507 2873.600830,686.534241 2907.208496,681.942383 
	C2972.069824,673.080261 3037.011719,667.609619 3102.440918,672.319214 
	C3153.046631,675.961792 3202.832031,685.023926 3251.898682,697.824890 
	C3334.016602,719.248657 3412.867676,749.492676 3489.357666,786.134277 
	C3632.637939,854.770630 3763.926270,941.788269 3884.915527,1044.470459 
	C3911.820557,1067.304810 3937.534912,1091.563110 3963.422852,1115.569824 
	C3988.471436,1138.798218 4008.950684,1165.948853 4028.638184,1193.712524 
	C4050.607910,1224.694946 4072.524170,1255.716187 4094.673584,1286.569824 
	C4100.884277,1295.221558 4107.776367,1303.389282 4114.453125,1311.700562 
	C4138.889160,1342.118042 4169.942871,1363.036499 4206.483398,1376.323975 
	C4235.368164,1386.827271 4265.272949,1393.365479 4295.128418,1400.172852 
	C4323.058105,1406.541260 4350.908691,1413.172363 4377.554199,1424.005127 
	C4402.507324,1434.149780 4424.917480,1448.104248 4444.588379,1466.677612 
	C4492.134766,1511.571045 4536.111816,1559.810913 4578.945801,1609.124634 
	C4626.605957,1663.995117 4672.669922,1720.155518 4713.871094,1780.116455 
	C4730.096680,1803.729736 4745.571289,1827.810059 4756.923340,1854.328003 
	C4765.145996,1873.534180 4765.350586,1893.022339 4761.341797,1913.062134 
	C4758.866211,1925.434814 4752.817383,1935.638184 4742.855957,1942.990234 
	C4704.187012,1971.529663 4664.826172,1998.767578 4617.886719,2012.715454 
	C4585.096191,2022.458984 4551.820801,2028.281982 4517.626465,2028.830444 
	C4469.602051,2029.600586 4421.834473,2027.033447 4374.073730,2021.267700 
	C4327.174316,2015.605835 4280.023438,2011.449463 4232.862793,2008.695923 
	C4188.090820,2006.081543 4143.680664,2010.873047 4100.523926,2023.907959 
	C4091.041748,2026.771973 4081.479736,2030.332153 4072.986816,2035.327148 
	C4050.230713,2048.710449 4038.018066,2079.627441 4045.616455,2104.768066 
	C4047.635010,2111.447754 4052.057129,2118.263428 4057.248535,2122.936523 
	C4067.091553,2131.796875 4077.757568,2140.010986 4089.019043,2146.978760 
	C4128.798828,2171.591064 4171.578613,2190.230957 4214.574707,2208.335205 
	C4312.816406,2249.702148 4413.038574,2285.977783 4512.518066,2324.166016 
	C4589.623535,2353.765137 4666.868164,2383.094482 4741.316895,2419.048096 
	C4764.674805,2430.328369 4787.599121,2442.714844 4809.816406,2456.098389 
	C4841.155762,2474.977051 4865.678223,2501.195557 4885.297363,2531.982178 
	C4895.798340,2548.460449 4903.080566,2566.259766 4905.903320,2585.687012 
	C4910.826660,2619.571045 4894.535156,2650.307129 4860.679199,2660.483643 
	C4854.967285,2662.200439 4849.094727,2663.515869 4843.209473,2664.499512 
	C4824.543945,2667.619141 4806.095703,2665.342285 4787.817383,2661.454834 
	C4754.450195,2654.358887 4722.766113,2642.196045 4691.436523,2629.000732 
	C4633.043457,2604.407227 4576.934570,2575.129639 4520.865723,2545.778320 
	C4477.785156,2523.226562 4434.783691,2500.525146 4391.752441,2477.879883 
	C4329.742676,2445.246338 4265.117188,2418.654053 4199.668457,2393.823975 
	C4063.916016,2342.322510 3927.081543,2293.968750 3788.547119,2250.461670 
	C3693.879150,2220.730713 3598.423096,2193.752686 3502.175537,2169.680420 
	C3400.742432,2144.311279 3298.560059,2122.177002 3195.372314,2105.255127 
	C3134.288086,2095.237305 3072.839111,2087.356201 3011.449951,2079.308594 
	C2950.030518,2071.256836 2888.331299,2065.832031 2826.442627,2062.907715 
	C2791.194336,2061.242188 2755.932129,2059.720459 2720.659424,2058.765625 
	C2682.716309,2057.738281 2644.734619,2056.421143 2606.803223,2057.098877 
	C2558.897949,2057.955078 2511.015625,2060.465576 2463.145020,2062.722168 
	C2436.543213,2063.975830 2409.941406,2065.676758 2383.418457,2068.054199 
	C2348.941895,2071.144287 2314.478760,2074.580322 2280.129150,2078.832031 
	C2239.826660,2083.820801 2199.610107,2089.556885 2159.432373,2095.485352 
	C2092.218262,2105.402832 2025.627930,2118.705566 1959.336182,2133.506592 
	C1761.324341,2177.717529 1568.745605,2239.404297 1380.209595,2314.004883 
	C1306.508057,2343.167480 1233.306274,2373.499512 1161.690552,2407.579590 
	C1080.921387,2446.015625 1003.576538,2490.419678 928.653564,2539.184326 
	C873.930359,2574.802002 819.522156,2610.940918 764.069824,2645.393066 
	C669.719116,2704.012451 568.508606,2748.300049 464.059357,2785.472412 
	C460.960876,2786.575195 457.725769,2787.294189 455.172516,2788.017090 
	C449.213104,2785.718018 448.293854,2781.207031 447.843781,2776.440186 
	C446.938049,2766.847412 449.051208,2757.629150 453.376465,2749.336182 
	C460.444824,2735.783447 467.651428,2722.165283 476.280579,2709.590820 
	C500.484314,2674.321045 529.057678,2642.594482 559.034363,2612.223389 
	C595.083313,2575.699951 631.862915,2539.897949 668.255920,2503.713135 
	C675.341309,2496.667969 681.920044,2489.110352 689.065002,2482.129395 
	C697.626465,2473.764404 706.106140,2465.224609 715.377747,2457.691895 
	C791.419861,2395.913574 867.791138,2334.539551 943.745728,2272.654297 
	C989.730469,2235.187500 1034.677002,2196.455078 1076.901978,2154.761719 
	C1093.456177,2138.416260 1108.886108,2120.809326 1123.665161,2102.821533 
	C1140.137451,2082.772705 1147.984009,2058.498779 1151.827515,2033.261719 
	C1154.827637,2013.563843 1153.537476,1993.670288 1150.308838,1973.446411 
	C1138.584473,1971.235229 1127.969116,1972.250366 1117.461914,1972.236938 
	C1095.896362,1972.209351 1075.028687,1968.568359 1054.930054,1960.824097 
	C998.110596,1938.930664 965.788940,1896.628418 956.660950,1837.507080 
	C950.672424,1798.719727 954.775269,1760.382202 974.078247,1724.874878 
	C985.104431,1704.592529 999.822693,1687.794556 1018.649780,1674.426392 
	C1041.632690,1658.107544 1066.795166,1652.968140 1094.505005,1657.713989 
	C1118.768311,1661.869507 1143.122681,1665.645264 1167.553345,1668.638428 
	C1211.756836,1674.053711 1255.226929,1668.883423 1298.190063,1658.037354 
	C1339.111694,1647.706665 1377.868286,1631.730103 1415.134155,1612.238892 
	C1496.132690,1569.874023 1580.119019,1534.336548 1665.428345,1501.810303 
	C1785.640503,1455.976440 1908.003052,1416.929932 2033.014160,1386.343750 
	C2102.905762,1369.243530 2173.408447,1355.182739 2244.618652,1344.900757 
	C2327.909668,1332.874756 2411.688477,1328.469849 2495.742920,1332.408203 
	C2539.632080,1334.464722 2583.316406,1339.550659 2626.831543,1345.962280 
	C2754.233154,1364.734009 2878.691650,1396.688477 3002.965332,1429.490723 
	C3096.940430,1454.295776 3190.692139,1479.951416 3285.413574,1501.861450 
	C3358.111816,1518.677124 3431.249756,1533.194824 3505.212891,1543.034424 
	C3580.577148,1553.060425 3656.315430,1558.602783 3732.396484,1555.325562 
	C3785.659180,1553.031128 3838.645752,1547.579956 3890.900391,1536.432129 
	C3893.420654,1535.894409 3895.873535,1535.040405 3898.344238,1534.337524 
	C3898.731201,1526.701782 3894.878906,1521.132202 3891.647217,1515.407959 
	C3880.633545,1495.899780 3865.500488,1480.103638 3847.102783,1467.528320 
	C3837.766846,1461.147095 3828.199707,1454.917603 3818.123535,1449.836670 
	C3761.627686,1421.349487 3706.098633,1390.926147 3648.079590,1365.482178 
	C3566.195801,1329.572144 3482.001221,1300.171509 3395.997314,1275.985229 
	C3318.446045,1254.175903 3240.528320,1233.666382 3162.999023,1211.780151 
	C3075.664551,1187.126221 2990.555176,1156.209717 2909.299805,1115.591431 
	C2819.580078,1070.741699 2735.497070,1016.986389 2658.580322,952.364502 
	C2618.743164,918.895264 2580.301758,883.918518 2546.741699,844.018188 
	C2533.468994,828.238159 2521.010742,811.698669 2509.203613,794.791382 
	C2503.178467,786.163696 2498.852539,776.186646 2494.849121,766.374512 
	C2492.667969,761.028137 2492.046387,754.755859 2492.011719,748.893494 
	C2491.963867,740.817688 2495.967041,736.058777 2504.101562,735.875732 
	C2515.331055,735.623108 2526.932129,735.538208 2537.779053,738.000977 
	C2560.472168,743.153381 2583.191162,748.817810 2605.162842,756.405151 
	C2672.506592,779.660645 2739.735596,803.291199 2806.586914,827.922241 
	C2964.679443,886.170532 3122.406494,945.410767 3280.524414,1003.589966 
	C3365.029297,1034.683594 3446.872803,1071.805420 3528.159424,1110.242554 
	C3651.070801,1168.362549 3771.617676,1231.054688 3891.261719,1300.505127 
	C3895.051025,1303.114014 3897.047363,1304.105713 3900.044434,1305.979248 
	C3908.999756,1310.659302 3915.572510,1317.501709 3927.962402,1319.612305 
	C3921.225830,1312.013916 3918.287109,1305.215088 3909.302002,1302.552246 
	C3905.921631,1299.263062 3903.697510,1296.117676 3900.375977,1299.687988 
	C3900.541260,1299.727905 3900.724365,1299.441895 3900.724365,1299.441895 
z"/>
<path fill="#18A0D5" opacity="1.000000" stroke="none" 
	d="
M4401.676758,2646.001953 
	C4293.488770,2592.269043 4183.695801,2545.828857 4073.345703,2500.664062 
	C4028.352539,2482.249268 3983.070068,2464.536133 3938.169922,2445.901123 
	C3925.518555,2440.649902 3912.971191,2437.553467 3899.358887,2438.960449 
	C3897.375000,2439.165527 3895.356689,2439.354004 3893.376221,2439.223145 
	C3885.509277,2438.703857 3880.360596,2434.719727 3880.376221,2426.961426 
	C3880.397705,2416.391846 3881.892090,2405.815186 3882.981934,2395.264893 
	C3883.311768,2392.070312 3884.393799,2388.953369 3885.393311,2384.681641 
	C3890.018066,2385.375244 3893.885254,2385.451416 3897.429199,2386.561035 
	C3962.862549,2407.050293 4028.577148,2426.707520 4093.587891,2448.466309 
	C4199.690430,2483.977783 4304.723633,2522.530273 4408.486816,2564.441650 
	C4477.663574,2592.383301 4546.393066,2621.437012 4612.649414,2655.839111 
	C4640.396484,2670.245850 4667.216309,2686.493896 4694.025879,2702.621826 
	C4704.238281,2708.765625 4713.224609,2716.941895 4722.800781,2724.150879 
	C4742.595703,2739.052979 4752.890137,2759.304443 4755.773438,2783.510010 
	C4756.711914,2791.389404 4757.524902,2799.497070 4756.713867,2807.326172 
	C4755.096191,2822.935059 4747.097168,2829.770508 4731.219238,2828.897949 
	C4722.698242,2828.430176 4713.793457,2826.955322 4705.956055,2823.749268 
	C4690.590332,2817.463379 4675.120117,2810.841309 4661.006348,2802.211670 
	C4633.743164,2785.542480 4606.352051,2768.758301 4580.895020,2749.531494 
	C4539.179688,2718.025635 4494.027344,2692.643066 4447.708984,2668.991943 
	C4432.876953,2661.418457 4417.892578,2654.143799 4401.676758,2646.001953 
z"/>
<path fill="#88CBE8" opacity="1.000000" stroke="none" 
	d="
M3899.043701,1305.097290 
	C3897.047363,1304.105713 3895.051025,1303.114014 3892.474854,1301.153320 
	C3893.878662,1300.189819 3895.862061,1300.195435 3899.285156,1299.821533 
	C3900.724365,1299.441895 3900.541260,1299.727905 3900.120605,1300.707764 
	C3899.891602,1302.361572 3900.083008,1303.035522 3899.965576,1304.055420 
	C3899.656494,1304.401123 3899.043701,1305.097290 3899.043701,1305.097290 
z"/>
<path fill="#88CBE8" opacity="1.000000" stroke="none" 
	d="
M3910.228027,1303.912598 
	C3918.287109,1305.215088 3921.225830,1312.013916 3927.962402,1319.612305 
	C3915.572510,1317.501709 3908.999756,1310.659302 3900.044434,1305.979248 
	C3899.043701,1305.097290 3899.656494,1304.401123 3901.619629,1304.302979 
	C3905.798096,1304.107544 3908.012939,1304.010132 3910.228027,1303.912598 
z"/>
<path fill="#FFFFFF" opacity="1.000000" stroke="none" 
	d="
M3909.302002,1302.552246 
	C3908.012939,1304.010132 3905.798096,1304.107544 3901.928711,1303.957275 
	C3900.083008,1303.035522 3899.891602,1302.361572 3899.955566,1300.667969 
	C3903.697510,1296.117676 3905.921631,1299.263062 3909.302002,1302.552246 
z"/>
</svg>